<svg xmlns="http://www.w3.org/2000/svg" viewBox="0 0 512 512">
  <!-- 背景円 -->
  <circle cx="256" cy="256" r="256" fill="#27ae60"/>
  <!-- 皿 -->
  <ellipse cx="256" cy="290" rx="160" ry="28" fill="rgba(0,0,0,0.15)"/>
  <ellipse cx="256" cy="278" rx="155" ry="22" fill="white" opacity="0.95"/>
  <!-- お皿の中：ご飯 -->
  <ellipse cx="256" cy="260" rx="90" ry="30" fill="#f5f0e0"/>
  <!-- お皿の中：野菜（緑） -->
  <ellipse cx="190" cy="248" rx="40" ry="22" fill="#2ecc71"/>
  <!-- お皿の中：魚（オレンジ） -->
  <ellipse cx="320" cy="250" rx="38" ry="18" fill="#e67e22"/>
  <!-- フォーク -->
  <rect x="152" y="160" width="8" height="90" rx="4" fill="white" opacity="0.9"/>
  <rect x="150" y="160" width="4" height="40" rx="2" fill="white" opacity="0.9"/>
  <rect x="158" y="160" width="4" height="40" rx="2" fill="white" opacity="0.9"/>
  <!-- グラフ棒（右上） -->
  <rect x="350" y="140" width="18" height="60" rx="4" fill="white" opacity="0.85"/>
  <rect x="374" y="155" width="18" height="45" rx="4" fill="white" opacity="0.6"/>
  <rect x="398" y="130" width="18" height="70" rx="4" fill="white" opacity="0.85"/>
  <!-- ハート（健康マーク） -->
  <path d="M256 200 C256 200 236 182 220 190 C204 198 204 218 220 230 L256 262 L292 230 C308 218 308 198 292 190 C276 182 256 200 256 200Z" fill="white" opacity="0.9"/>
</svg>
